<svg width="186" height="51" viewBox="0 0 186 51" fill="none" xmlns="http://www.w3.org/2000/svg">
    <g clip-path="url(#clip0_107_6555)">
        <path d="M170.869 50.8736H-0.167236C4.93209 33.9719 10.0732 17.1124 15.1725 0.210744C75.8629 0.210744 125.519 0.210744 186.167 0.210744C181.068 17.1124 175.968 33.9719 170.869 50.8736Z" fill="#303030"/>
        <path d="M39.3317 44.214H31.1393L32.853 31.5273H27.5865L21.6512 44.214H13.3752L32.6022 6.8281H42.7173L39.3317 44.214ZM33.689 25.7107L35.0683 15.5107L30.3033 25.7107H33.689Z" fill="white"/>
        <path d="M73.3968 6.87024L63.6161 38.9033C62.9473 41.1793 61.6516 42.781 59.6871 43.7083C57.9734 44.4669 55.4655 44.9306 52.1217 44.9727C46.4372 45.057 43.595 43.7083 43.595 40.9265C43.595 40.505 43.6786 40.0413 43.8458 39.5355L53.7518 6.8281H62.2368L52.8741 37.9339C52.8323 38.0603 52.8323 38.1868 52.8323 38.2711C52.8323 38.7769 53.1249 39.0298 53.7518 39.0298C54.546 39.0298 55.0476 38.6504 55.2565 37.9339L64.7446 6.87024H73.3968Z" fill="white"/>
        <path d="M93.794 12.6868H88.4021L78.8305 44.214H70.3037L79.8754 12.6868H74.3999L76.239 6.87024H95.6331L93.794 12.6868Z" fill="white"/>
        <path d="M108.674 38.9033C107.964 41.2215 106.668 42.8231 104.745 43.7083C103.031 44.5512 100.524 44.9727 97.2215 44.9727C91.7042 44.9727 88.9456 43.624 88.9456 40.9264C88.9456 40.3364 89.071 39.662 89.2799 38.9033L97.4723 11.7174C98.0157 9.90495 99.4786 8.5562 101.903 7.54463C103.909 6.70165 106.083 6.28016 108.465 6.28016H109.176C111.266 6.28016 113.021 6.61736 114.442 7.24959C116.156 8.00827 116.992 9.14628 116.992 10.5372C116.992 10.9165 116.908 11.2959 116.783 11.7174L108.674 38.9033ZM100.649 37.386L107.629 14.2463C107.713 14.0355 107.755 13.8669 107.755 13.7405C107.755 13.1504 107.462 12.8132 106.919 12.8132C106.124 12.8132 105.581 13.2769 105.33 14.2463L98.2665 37.386C98.2247 37.5124 98.1829 37.6388 98.1829 37.7231C98.1829 38.1868 98.4754 38.4818 99.0188 38.4818C99.8548 38.4818 100.398 38.1446 100.649 37.386Z" fill="white"/>
        <path d="M169.239 48.6397H117.828C122.927 31.738 126.689 19.3884 131.83 2.48677C192.52 2.48677 122.509 2.48677 183.158 2.48677L169.239 48.6397Z" fill="white"/>
        <path d="M136.929 44.2562H128.403C132.081 31.7802 135.759 19.3463 139.437 6.87024C142.363 6.87024 145.289 6.87024 148.215 6.87024C144.453 19.3463 140.691 31.7802 136.929 44.2562Z" fill="#303030"/>
        <path d="M172.625 6.8281C168.863 19.3041 165.101 31.738 161.297 44.2141H141.067C141.402 43.1603 141.694 42.0645 142.029 41.0107C142.363 39.957 142.656 38.9033 142.99 37.8074C143.324 36.7537 143.617 35.6579 143.951 34.6041C146.877 34.6041 149.051 34.6041 151.977 34.6041C151.642 35.6579 151.35 36.7537 151.015 37.8074H154.735C155.613 34.7727 156.533 31.738 157.41 28.7033H146.417C147.044 26.5959 147.671 24.4463 148.298 22.2967C149.887 22.2967 154.735 22.2967 159.291 22.2967C160.169 19.262 161.089 16.2273 161.966 13.1926H158.413C158.079 14.2463 157.786 15.3421 157.452 16.3959H149.469C149.803 15.3421 150.096 14.2463 150.43 13.1926C150.723 12.1388 151.057 11.0851 151.391 9.98926C151.726 8.93554 152.018 7.88182 152.353 6.78595H163.889C167.734 6.78595 171.329 6.78595 172.625 6.78595V6.8281Z" fill="#303030"/>
    </g>
    <defs>
        <clipPath id="clip0_107_6555">
            <rect width="186" height="51" fill="white"/>
        </clipPath>
    </defs>
</svg>
